<?xml version="1.0" standalone="no"?>
<!DOCTYPE svg PUBLIC "-//W3C//DTD SVG 20010904//EN"
 "http://www.w3.org/TR/2001/REC-SVG-20010904/DTD/svg10.dtd">
<svg version="1.0" xmlns="http://www.w3.org/2000/svg"
 width="192.000000pt" height="192.000000pt" viewBox="0 0 192.000000 192.000000"
 preserveAspectRatio="xMidYMid meet">
<metadata>
Created by potrace 1.11, written by Peter Selinger 2001-2013
</metadata>
<g transform="translate(0.000000,192.000000) scale(0.100000,-0.100000)"
fill="#000000" stroke="none">
<path d="M880 1913 c-433 -42 -767 -320 -857 -714 -26 -116 -23 -387 6 -504
82 -334 339 -576 709 -667 120 -30 318 -30 449 0 366 83 655 369 717 709 21
113 13 392 -14 499 -95 382 -462 659 -895 677 -44 2 -96 2 -115 0z m310 -103
c321 -82 555 -308 631 -610 18 -70 21 -103 16 -190 -16 -306 -185 -555 -472
-695 -233 -115 -503 -125 -740 -30 -296 120 -479 339 -531 637 -27 157 -7 286
70 443 117 239 347 405 636 460 104 20 281 13 390 -15z"/>
<path d="M935 1751 c-16 -4 -43 -14 -60 -22 l-30 -15 1 -99 c1 -69 8 -125 23
-180 23 -84 79 -215 91 -215 4 0 13 7 20 15 27 32 50 12 50 -45 0 -39 17 -47
44 -21 31 29 46 26 46 -9 0 -29 2 -31 33 -26 17 3 64 10 103 16 88 12 204 50
300 97 70 34 74 37 74 69 0 151 -184 325 -435 411 -75 26 -208 38 -260 24z
m55 -90 c18 -34 11 -76 -17 -114 -16 -20 -31 -36 -34 -37 -3 0 -13 16 -22 35
-20 41 -22 106 -5 123 19 19 66 15 78 -7z m298 -87 c43 -30 23 -86 -41 -115
-64 -28 -70 -26 -62 24 16 93 53 126 103 91z m228 -230 c16 -24 16 -27 -3 -52
-23 -31 -64 -44 -114 -36 l-37 6 20 34 c43 73 104 95 134 48z"/>
<path d="M555 1652 c-68 -28 -110 -60 -173 -127 -69 -73 -132 -174 -164 -261
-32 -86 -32 -211 1 -278 l24 -49 116 6 c126 7 242 31 344 73 65 27 65 27 50
51 -21 32 -6 48 31 33 41 -15 48 -4 26 40 -28 56 -26 64 15 57 35 -6 35 -5 35
31 -1 88 -61 272 -127 384 l-34 58 -52 -1 c-29 0 -70 -8 -92 -17z m35 -90 c18
-15 56 -119 47 -129 -9 -8 -86 23 -109 45 -32 29 -35 57 -11 84 20 23 45 23
73 0z m-190 -207 c27 -14 77 -81 67 -91 -14 -14 -77 -14 -110 -1 -45 19 -59
58 -32 87 22 24 37 25 75 5z m-26 -297 c20 -13 36 -26 36 -29 0 -4 -22 -16
-50 -28 -56 -24 -92 -20 -115 12 -20 28 -19 33 6 58 26 26 70 22 123 -13z"/>
<path d="M1500 1114 c-109 -19 -192 -39 -260 -65 -44 -17 -80 -33 -80 -36 0
-3 9 -16 20 -31 28 -34 12 -51 -32 -34 -17 6 -34 9 -37 7 -3 -3 5 -26 18 -52
12 -25 18 -50 14 -54 -4 -4 -25 -4 -46 0 -20 5 -37 6 -37 2 0 -3 7 -46 16 -96
18 -104 58 -213 112 -305 l38 -65 48 3 c143 9 293 133 386 317 74 146 91 278
46 365 l-23 45 -79 1 c-43 1 -90 0 -104 -2z m164 -90 c59 -59 -49 -114 -121
-61 -39 29 -39 38 0 59 41 22 101 23 121 2z m-116 -281 c34 -25 39 -49 16 -74
-35 -38 -90 -16 -124 51 -11 22 -20 42 -20 46 0 14 103 -4 128 -23z m-253
-181 c55 -38 72 -75 51 -108 -20 -30 -52 -31 -83 -2 -19 18 -23 32 -23 80 0
32 3 58 8 58 4 -1 25 -13 47 -28z"/>
<path d="M720 919 c-101 -10 -237 -51 -340 -102 l-85 -42 3 -45 c8 -105 76
-198 212 -289 193 -129 398 -172 534 -112 l49 21 -7 83 c-10 115 -31 207 -66
290 -43 103 -45 105 -69 83 -27 -24 -37 -15 -44 39 -6 60 -13 65 -41 30 -26
-33 -46 -27 -46 15 0 35 -8 38 -100 29z m-200 -156 c0 -22 -44 -75 -74 -90
-32 -15 -37 -15 -60 1 -33 21 -34 59 -4 80 23 16 138 23 138 9z m170 -225 c-9
-69 -17 -87 -45 -94 -54 -14 -86 15 -69 63 6 18 27 37 59 55 28 15 52 28 56
28 3 0 2 -24 -1 -52z m284 -47 c46 -65 34 -131 -23 -131 -36 0 -51 17 -51 57
0 29 33 113 44 113 2 0 15 -18 30 -39z"/>
</g>
</svg>
